<svg width="25" height="13" viewBox="0 0 25 13" fill="none" xmlns="http://www.w3.org/2000/svg">
<path d="M2.29583 6.04167C2.29583 3.97542 3.97542 2.29583 6.04167 2.29583H10.875V0H6.04167C2.70667 0 0 2.70667 0 6.04167C0 9.37667 2.70667 12.0833 6.04167 12.0833H10.875V9.7875H6.04167C3.97542 9.7875 2.29583 8.10792 2.29583 6.04167ZM7.25 7.25H16.9167V4.83333H7.25V7.25ZM18.125 0H13.2917V2.29583H18.125C20.1912 2.29583 21.8708 3.97542 21.8708 6.04167C21.8708 8.10792 20.1912 9.7875 18.125 9.7875H13.2917V12.0833H18.125C21.46 12.0833 24.1667 9.37667 24.1667 6.04167C24.1667 2.70667 21.46 0 18.125 0Z" fill="#5B5B5B"/>
</svg>
